<svg width="128" height="128" viewBox="0 0 128 128" fill="none" xmlns="http://www.w3.org/2000/svg">
  <rect width="128" height="128" rx="64" fill="#FF2000"/>
  <path d="M82.3375 35.1667H99.6667L92.6667 50.1667L82.3375 35.1667ZM45.6625 35.1667H28.3333L35.3333 50.1667L45.6625 35.1667Z" fill="white"/>
  <path d="M35.3333 50.1667L28.3333 35.1667H45.6625L54.3333 49.5L64 35.1667L73.6667 49.5L82.3375 35.1667H99.6667L92.6667 50.1667L95.6667 55.8333L99.6667 64L95.6667 87.5L85.3333 100.167L64 87.5L42.6667 100.167L32.3333 87.5L28.3333 64L32.3333 55.8333L35.3333 50.1667ZM45.6625 69.6667L54.3333 78.3333H73.6667L82.3375 69.6667L78.3375 55.1667L64 61.1667L49.6625 55.1667L45.6625 69.6667Z" fill="white"/>
</svg> 