<svg width="128" height="128" viewBox="0 0 128 128" fill="none" xmlns="http://www.w3.org/2000/svg">
  <rect width="128" height="128" rx="64" fill="#AB9FF2"/>
  <path d="M110.584 64.9142H99.1422C99.1422 41.7651 80.343 23 57.1559 23C36.8693 23 19.8563 37.0529 16 55.7885C15.7805 56.9632 15.6316 58.138 15.6316 59.3838C15.6316 72.0112 25.9338 82.2764 38.6001 82.2764H45.194V73.8606H38.6001C30.6452 73.8606 24.0473 67.3019 24.0473 59.3838C24.0473 58.6663 24.0473 57.9489 24.1962 57.2315C27.1228 43.0818 40.9658 32.0979 57.1559 32.0979C75.3177 32.0979 90.1349 46.9114 90.1349 64.9142H78.9962C76.3665 64.9142 74.4827 66.7949 74.4827 69.4183C74.4827 72.0417 76.3665 73.9225 78.9962 73.9225H90.7254V82.3383H99.1422V73.9225H110.584C113.213 73.9225 115.097 72.0417 115.097 69.4183C115.097 66.7949 113.213 64.9142 110.584 64.9142Z" fill="white"/>
  <path d="M90.7253 105C97.6175 105 103.211 99.4199 103.211 92.5421C103.211 85.6644 97.6175 80.0842 90.7253 80.0842C83.8332 80.0842 78.2393 85.6644 78.2393 92.5421C78.2393 99.4199 83.8332 105 90.7253 105Z" fill="white"/>
</svg> 