<svg width="128" height="128" viewBox="0 0 128 128" fill="none" xmlns="http://www.w3.org/2000/svg">
  <rect width="128" height="128" rx="64" fill="#FE9731"/>
  <path d="M64 104C64 104 97 83.333 97 64C97 44.667 82.5 29 64 29C45.5 29 31 44.667 31 64C31 83.333 64 104 64 104Z" fill="white"/>
  <path d="M64 84C75.0457 84 84 75.0457 84 64C84 52.9543 75.0457 44 64 44C52.9543 44 44 52.9543 44 64C44 75.0457 52.9543 84 64 84Z" fill="#FE9731"/>
  <path d="M64 74C69.5228 74 74 69.5228 74 64C74 58.4772 69.5228 54 64 54C58.4772 54 54 58.4772 54 64C54 69.5228 58.4772 74 64 74Z" fill="white"/>
</svg> 